<?xml version="1.0" encoding="utf-8"?>
<!-- Generator: Adobe Illustrator 21.0.0, SVG Export Plug-In . SVG Version: 6.00 Build 0)  -->
<svg version="1.1" id="Layer_1" xmlns="http://www.w3.org/2000/svg" xmlns:xlink="http://www.w3.org/1999/xlink" x="0px" y="0px"
	 width="176px" height="24px" viewBox="0 0 176 24" style="enable-background:new 0 0 176 24;" xml:space="preserve">
<style type="text/css">
	.st0{fill:#FFFFFF;}
</style>
<g>
	<path class="st0" d="M9.3,11.2l4.5-9h-1.3h-0.8V0.5h0.8h2.2h1.8h1.3h0.8v1.7h-0.8h-2.2L10.8,12l4.9,9.8h2.2h0.8v1.7h-0.8h-1.3h-1.8
		h-2.2h-0.8v-1.7h0.8h1.3l-4.5-9H8v9v0.8v0.8H7.1H6.3h-1H3.6H1.8H1v-1.7h0.8h1.8V2.2H1.8H1V0.5h0.8h1.8h1.7h1h0.8H8v0.8v0.8v9H9.3z
		 M6.3,11.2v-9h-1v19.7h1v-9V11.2z"/>
	<path class="st0" d="M33.6,2.2h-1.8H31V0.5h0.8h1.8h1.7h1h1.7h1.8h0.8v1.7h-0.8h-1.8v19.7h1.8h0.8v1.7h-0.8h-1.8h-1.7h-1h-1.7h-1.8
		H31v-1.7h0.8h1.8V2.2z M36.2,21.8V2.2h-1v19.7H36.2z"/>
	<path class="st0" d="M55.1,5.7h-1.7V4.9V1.3V0.5h0.8h5.2h1.7h5.1h0.8v0.8v3.6v0.8h-1.7V4.9V2.2h-4.3v19.7H63h0.8v1.7H63h-1.8h-1.7
		h-1.9h-0.8v-1.7h0.8h1.9V2.2h-4.4v2.7V5.7z"/>
	<path class="st0" d="M94.3,23.5h-0.8v-0.8v-0.8v-9h-1.4h-0.4h-4.5v9v0.8v0.8h-0.8h-0.8h-1h-1.7H81h-0.8v-1.7H81h1.8V2.2H81h-0.8
		V0.5H81h1.8h1.7h1h1.7h7.2h0.8v0.8v7.1v0.3L95,8.9l-1.7,2.2h1h0.8V12v9.8H97h0.8v1.7H97h-1.8H94.3z M84.5,2.2v19.7h1v-9v-1.7v-9
		H84.5z M93.5,8.2v-6h-6.3v9h4.1L93.5,8.2z"/>
	<path class="st0" d="M110.8,2.2H109h-0.8V0.5h0.8h1.8h1.7h1h1.7h1.8h0.8v1.7h-0.8h-1.8v19.7h1.8h0.8v1.7h-0.8h-1.8h-1.7h-1h-1.7
		H109h-0.8v-1.7h0.8h1.8V2.2z M113.4,21.8V2.2h-1v19.7H113.4z"/>
	<path class="st0" d="M141.5,2.2h-0.8V0.5h0.8h1.8h1.7h1.8h0.8v1.7h-0.8H145v19.7h1.8h0.8v1.7h-0.8H145h-1.4h-2.1h-0.8v-1.7h0.8h1.5
		l-6-15.9v15.9v0.8v0.8h-0.8h-0.8h-1h-1.7h-1.8H130v-1.7h0.8h1.8V2.2h-1.8H130V0.5h0.8h1.8h1.7h1h0.8h0.6h0.3v0.7l6.3,16.9V2.2
		H141.5z M135.4,21.8V2.2h-1v19.7H135.4z"/>
	<path class="st0" d="M173.4,21.8v-9h-1.8h-0.8v-1.7h0.8h2.7h0.8V12v10.7v0.8h-0.8H167h-1.7h-1h-1.7h-1.8H160v-1.7h0.8h1.8V2.2h-1.8
		H160V0.5h0.8h1.8h1.7h1h1.7h7.2h0.8v0.8v3.6v0.8h-1.7V4.9V2.2H167v19.7H173.4z M165.4,2.2h-1v19.7h1V2.2z"/>
</g>
</svg>
