<svg width="15" height="14" viewBox="0 0 15 14" fill="none" xmlns="http://www.w3.org/2000/svg">
<path d="M10.6578 0.0376812C11.7801 0.125709 12.834 0.612209 13.629 1.4093C14.5047 2.29035 14.9962 3.4821 14.9962 4.7243C14.9962 5.96651 14.5047 7.15825 13.629 8.0393L8.9715 12.7043C8.58148 13.0881 8.05621 13.3033 7.509 13.3033C6.96179 13.3033 6.43651 13.0881 6.0465 12.7043L1.389 8.0393C0.545109 7.20131 0.0500807 6.07469 0.00359655 4.88631C-0.0428876 3.69794 0.362626 2.5361 1.13848 1.63474C1.91433 0.733387 3.00288 0.159476 4.18494 0.0285818C5.36699 -0.102313 6.55474 0.219532 7.509 0.929304C8.41857 0.265903 9.5354 -0.0503463 10.6578 0.0376812Z" fill="#FB8560"/>
</svg>
