<svg width="14" height="14" viewBox="0 0 14 14" fill="none" xmlns="http://www.w3.org/2000/svg">
<path d="M11.7601 2.91693C11.1417 2.29696 10.322 1.91857 9.44909 1.85011C8.57615 1.78164 7.7075 2.02761 7.00006 2.54359C6.25786 1.99155 5.33405 1.74122 4.41468 1.84303C3.4953 1.94484 2.64865 2.39121 2.04521 3.09227C1.44177 3.79332 1.12637 4.69698 1.16253 5.62127C1.19868 6.54556 1.5837 7.42182 2.24006 8.07359L5.86256 11.7019C6.1659 12.0005 6.57445 12.1678 7.00006 12.1678C7.42567 12.1678 7.83422 12.0005 8.13756 11.7019L11.7601 8.07359C12.4411 7.38833 12.8234 6.46142 12.8234 5.49526C12.8234 4.5291 12.4411 3.60219 11.7601 2.91693ZM10.9376 7.26859L7.31506 10.8911C7.27384 10.9327 7.22477 10.9658 7.17071 10.9883C7.11664 11.0109 7.05864 11.0225 7.00006 11.0225C6.94148 11.0225 6.88348 11.0109 6.82941 10.9883C6.77534 10.9658 6.72628 10.9327 6.68506 10.8911L3.06256 7.25109C2.60508 6.78346 2.34891 6.15528 2.34891 5.50109C2.34891 4.8469 2.60508 4.21872 3.06256 3.75109C3.52873 3.29084 4.15746 3.03276 4.81256 3.03276C5.46766 3.03276 6.09639 3.29084 6.56256 3.75109C6.61679 3.80577 6.6813 3.84916 6.75239 3.87878C6.82347 3.90839 6.89972 3.92364 6.97673 3.92364C7.05373 3.92364 7.12998 3.90839 7.20106 3.87878C7.27215 3.84916 7.33666 3.80577 7.39089 3.75109C7.85707 3.29084 8.48579 3.03276 9.14089 3.03276C9.79599 3.03276 10.4247 3.29084 10.8909 3.75109C11.3547 4.2126 11.6192 4.83737 11.628 5.49158C11.6367 6.14578 11.3889 6.77739 10.9376 7.25109V7.26859Z" fill="#FB8560"/>
</svg>
